<svg width="512" height="512" xmlns="http://www.w3.org/2000/svg"><g transform="translate(15.656 15.657)"><circle cx="240.34" cy="240.34" r="240.94" fill="#e74c3c" style="-inkscape-stroke:none"/><path d="M42.426 338.84q-1.13 0-1.13-1.413l.282-194.16q0-1.13 1.13-1.13h90.724q1.13 0 1.13 1.412v31.654q0 1.131-1.13 1.131H75.494v44.09h57.938q1.13 0 1.13 1.13l.283 31.937q0 1.131-1.13 1.131H75.492v49.459h58.221q1.13 0 1.13 1.413v32.22q0 1.13-1.13 1.13zm113.614 0q-1.413 0-1.413-1.413V305.49q0-.565.565-1.13L225 208.55q1.979-2.544 3.109-6.501 1.413-4.24 1.413-7.348 0-8.196-5.935-14.98-5.935-7.065-14.979-7.065-8.761 0-14.979 6.783-5.935 6.5-5.935 16.675v13.85q0 1.412-1.413 1.412h-31.654q-1.13 0-1.13-1.413v-13.849q0-15.827 7.63-28.828 7.914-13 20.35-20.632 12.717-7.63 27.131-7.63 15.262 0 27.697 7.913 12.436 7.63 19.784 20.349 7.631 12.718 7.631 27.415 0 9.326-3.391 18.936-3.11 9.61-8.762 16.958l-53.699 73.765h63.591q1.13 0 1.13 1.13v31.937q0 1.413-1.13 1.413zm129.16 0q-1.13 0-1.13-1.13v-31.937q0-1.131 1.13-1.131h31.937q1.13 0 1.13 1.13v31.937q0 1.131-1.13 1.131zm111.35 2.82q-18.088 0-31.937-7.63-13.849-7.914-21.762-20.633-7.63-13-7.63-28.545l.282-89.592q0-15.544 7.63-28.263 7.914-12.718 21.763-20.349 13.849-7.63 31.654-7.63 18.088 0 31.654 7.63 13.566 7.631 21.197 20.35 7.913 12.717 7.913 28.262l.283 89.592q0 15.544-7.914 28.545-7.63 12.718-21.479 20.632-13.566 7.631-31.654 7.631zm26.849-56.808-.283-89.592q0-9.892-7.348-16.11t-19.219-6.218q-12.153 0-19.5 6.218-7.349 6.218-7.349 16.11v89.592q0 10.457 7.348 16.675 7.348 5.935 19.501 5.935 11.87 0 19.22-5.935 7.63-6.218 7.63-16.675z" fill="#fff"/></g></svg>